# xmcd
#
# Track frame offsets:
#	150
#	16145
#	30426
#	47292
#	65947
#	83170
#	99120
#	112696
#	127269
#	139237
#	157302
#	170970
#	189052
#	204308
#	220790
#	238427
#	253542
#
# Disc length: 3587 seconds
#
# Revision: 2
# Processed by: cddbd v1.5.1PL0 Copyright (c) Steve Scherf et al.
# Submitted via: audiograbber 1.83.01
#
DISCID=e90e0111
DTITLE=Various Artist - RC63
DYEAR=1900
DGENRE=Country
TTITLE0=Shania Twain - I'm Holding On To Love (To Save My Life)
TTITLE1=Rascal Flats - This Everyday Love
TTITLE2=Keith Urban - But For The Grace Of God (Edit)
TTITLE3=Lee Ann Womack - Ashes By Now (Radio Edit Version)
TTITLE4=Lonestar - Tell Her (Country Radio Mix)
TTITLE5=Reba - We're So Good Together (Remix Version)
TTITLE6=Clark Family Experience - Meanwhile Back At The Ranch
TTITLE7=Terri Clark - A Little Gasoline
TTITLE8=Alan Jackson - www (dot) Memory
TTITLE9=Jamie O'Neal - There Is No Arizona
TTITLE10=Chris Cagle - My Love Goes On And On
TTITLE11=Jo Dee Messina - Burn (Radio Remix Short)
TTITLE12=Clay Davidson - I Can't Lie To Me
TTITLE13=Kinleys - I'm In (Radio Edit)
TTITLE14=Billy Ray Cyrus - You Won't Be Lonely Now
TTITLE15=Mark Wills - Everything There Is To Know About You
TTITLE16=Chad Brock - The Visit
EXTD=
EXTT0=
EXTT1=
EXTT2=
EXTT3=
EXTT4=
EXTT5=
EXTT6=
EXTT7=
EXTT8=
EXTT9=
EXTT10=
EXTT11=
EXTT12=
EXTT13=
EXTT14=
EXTT15=
EXTT16=
PLAYORDER=
